<?xml version="1.0" encoding="utf-8"?>
<!-- Generator: Adobe Illustrator 15.1.0, SVG Export Plug-In  -->
<!DOCTYPE svg PUBLIC "-//W3C//DTD SVG 1.1//EN" "http://www.w3.org/Graphics/SVG/1.1/DTD/svg11.dtd" [
	<!ENTITY ns_flows "http://ns.adobe.com/Flows/1.0/">
]>
<svg version="1.1"
	 xmlns="http://www.w3.org/2000/svg" xmlns:xlink="http://www.w3.org/1999/xlink" xmlns:a="http://ns.adobe.com/AdobeSVGViewerExtensions/3.0/"
	 x="0px" y="0px" width="70px" height="70px" viewBox="-0.792 -0.686 288 288" enable-background="new -0.792 -0.686 288 288"
	 xml:space="preserve">
<defs>
</defs>
<path fill-rule="evenodd" clip-rule="evenodd" fill="#010202" d="M49.001,0.001c0,16.334,0,32.667,0,48.999c-16.333,0-32.667,0-49,0
	c0-16.334,0-32.666,0-49C16.334,0,32.667,0.001,49.001,0.001z M7.001,42c11.666,0,23.333,0,35.001,0
	c-0.001-11.666-0.001-23.333-0.001-34.999C30.334,7,18.667,7,7.001,7C7.001,18.668,7.001,30.334,7.001,42z"/>
<path fill-rule="evenodd" clip-rule="evenodd" fill="#010202" d="M91.001,0c4.666,0.001,9.333,0,14,0c0,2.334,0,4.667,0,7.001
	c2,0,4-0.001,6-0.001c2.235-0.43,0.404-4.928,1-6.999C114.334,0,116.667,0,119.001,0c0,4.667,0,9.334,0,14
	c-9.334,0.001-18.667,0.001-28,0C91.001,9.334,91.001,4.667,91.001,0z"/>
<path fill-rule="evenodd" clip-rule="evenodd" fill="#010202" d="M287.001,0c0,16.334,0,32.667,0.001,49
	c-16.335,0-32.669,0-49.001,0c0-16.333,0-32.666,0-49C254.333,0,270.667,0,287.001,0z M245,42.001C256.667,42,268.333,42,280.001,42
	c0-11.665,0-23.334,0-35c-11.668,0.001-23.334,0.001-35,0.001C245.001,18.667,245,30.334,245,42.001z"/>
<path fill-rule="evenodd" clip-rule="evenodd" fill="#010202" d="M14.001,14c7,0.001,14,0,21,0.001c0,6.999,0,14,0,20.999
	c-7,0-14,0-21,0C14.001,28,14.001,21.001,14.001,14z"/>
<path fill-rule="evenodd" clip-rule="evenodd" fill="#010202" d="M168.001,14c2.333,0,4.666,0.001,7,0.001c0,2.333,0,4.666,0,6.999
	c-2.334,0-4.668,0-7,0.001C168.002,18.666,168,16.334,168.001,14z"/>
<path fill-rule="evenodd" clip-rule="evenodd" fill="#010202" d="M252.001,14.001c7-0.001,14,0,21-0.001c0,7.001,0,14,0,21
	c-7,0-14,0-21,0C252.001,28.001,252.001,21,252.001,14.001z"/>
<path fill-rule="evenodd" clip-rule="evenodd" fill="#010202" d="M112.001,21c2.333,0.001,4.666,0.001,7,0.001
	c0,2.333,0,4.667,0,6.999c-2.334,0-4.667,0.001-7,0.001C112.001,25.667,112.001,23.334,112.001,21z"/>
<path fill-rule="evenodd" clip-rule="evenodd" fill="#010202" d="M126.001,42.001c2.333,0,4.666-0.001,7-0.001c0,4.667,0,9.334,0,14
	c-2.334,0-4.667,0.001-7,0.001C126.001,51.334,126.001,46.666,126.001,42.001z"/>
<path fill-rule="evenodd" clip-rule="evenodd" fill="#010202" d="M280.001,77.001c-2.335,0-4.669,0-7-0.001c0-2.334,0-4.667,0-6.999
	c-2.002,0-4,0-6,0c-2.305,2.694-0.355,9.644-1,13.999c-2.334,0-4.668,0-7,0.001c-0.001-4.334,0-8.667,0-13.001
	c-7.342-2.324-18.994-0.339-28-1c0-2.334,0-4.666,0-7c2.331,0.001,4.666,0.001,7,0.001c0-2.334,0-4.667,0-7.001
	c11.666,0,23.332,0,35,0c0,2.334,0,4.667,0,7.001c4.666-0.001,9.332,0,14,0c-0.002,2.332,0,4.667,0,6.999c-2.334,0-4.668,0-7,0.001
	C280.001,72.334,280.001,74.668,280.001,77.001z"/>
<path fill-rule="evenodd" clip-rule="evenodd" fill="#010202" d="M168.001,91c2.333,0,4.667,0,7.001,0c-0.001,2.334,0,4.666,0,7
	c-2.334,0-4.668,0-7.001,0.001C168.002,95.666,168.001,93.333,168.001,91z"/>
<path fill-rule="evenodd" clip-rule="evenodd" fill="#010202" d="M252.002,91c2.331,0,4.665,0,6.999,0c-0.001,2.334,0,4.666,0,7
	c-2.334,0-4.668,0-7,0C252.001,95.666,252.001,93.334,252.002,91z"/>
<path fill-rule="evenodd" clip-rule="evenodd" fill="#010202" d="M196.001,105c2.331,0.001,4.665,0.001,6.999,0.001
	c0.001,4.665,0.001,9.333,0.001,13.999c-2.334,0-4.667,0-7,0C196.001,114.334,196.001,109.666,196.001,105z"/>
<path fill-rule="evenodd" clip-rule="evenodd" fill="#010202" d="M42.001,112c2.333,0.002,4.666,0.001,7,0c0,2.334,0,4.668,0,7.002
	c-2.334,0-4.667-0.002-6.999-0.002C42.002,116.666,42.001,114.334,42.001,112z"/>
<path fill-rule="evenodd" clip-rule="evenodd" fill="#010202" d="M77.001,140c2.333,0.001,4.666,0,7,0c0,2.334,0,4.666,0,7
	c-2.334,0-4.667,0.002-7,0.002C77.001,144.666,77.001,142.334,77.001,140z"/>
<path fill-rule="evenodd" clip-rule="evenodd" fill="#010202" d="M98.001,154.002c2.333-0.002,4.666-0.001,7-0.001
	c0,2.333,0,4.667,0,7.001c-2.334,0-4.667-0.002-7-0.002C98.001,158.666,98.001,156.334,98.001,154.002z"/>
<path fill-rule="evenodd" clip-rule="evenodd" fill="#010202" d="M112.001,154.002c2.333-0.002,4.666-0.001,7-0.001
	c0,2.333,0,4.667,0,7.001c-2.334,0-4.667,0-7-0.002C112.001,158.666,112.001,156.334,112.001,154.002z"/>
<path fill-rule="evenodd" clip-rule="evenodd" fill="#010202" d="M147.001,203c2.331,0.002,4.665,0.002,7,0.002
	c0.001,6.998,0,14,0.001,20.999c-2.334,0-4.668,0-7,0.001c1.325-5.995-1.006-8.328-7.001-7.002c0-2.334,0-4.666,0-6.998
	c2.333,0,4.666-0.002,7.001,0C147.002,207.668,147.001,205.334,147.001,203z"/>
<path fill-rule="evenodd" clip-rule="evenodd" fill="#010202" d="M49.001,238.001c0,16.333,0,32.667,0,49.001
	c-16.334,0-32.667,0-49,0c0-16.334,0-32.668,0-49C16.334,238,32.667,238.001,49.001,238.001z M7.001,280.002c11.667,0,23.333,0,35,0
	c0-11.668,0-23.334,0-35.001c-11.667,0.001-23.334,0.001-35,0.001C7.002,256.668,7.002,268.334,7.001,280.002z"/>
<path fill-rule="evenodd" clip-rule="evenodd" fill="#010202" d="M238.001,238c2.332,0,4.666,0,7,0c0,2.334,0,4.668,0,7.002
	c-2.334,0-4.668,0-7,0C238.001,242.668,238.001,240.334,238.001,238z"/>
<path fill-rule="evenodd" clip-rule="evenodd" fill="#010202" d="M14.003,252.002c6.998,0,13.999,0,20.998,0c0,7,0,14,0,21
	c-7,0-14-0.001-21,0C14.002,266.002,14.001,259.002,14.003,252.002z"/>
<path fill-rule="evenodd" clip-rule="evenodd" fill="#010202" d="M77.001,21.001c-2.334,0-4.667-0.001-7-0.001
	c0-2.333,0-4.666,0-6.999c-2.334,0-4.667-0.001-7-0.001c0,6.666-0.001,13.334-0.002,20.001c0.125,2.208,4.243,0.425,6.001,1
	c2.236-0.431,0.405-4.929,1-7c2.333,0,4.666-0.001,7,0C77.001,25.668,77.001,23.334,77.001,21.001c9.333-0.001,18.666-0.001,28,0
	c0,2.333,0,4.667,0,6.999c-4.334,0-8.667,0.001-13,0c-2.209,0.125-0.426,4.242-1,6.001c0.43,2.236,4.928,0.405,7,0.999
	c0,2.334,0,4.666,0,7c-2.334,0-4.667,0-7,0c0,2.334,0,4.666,0,7c-2.334,0-4.667,0-7,0.001c0,2.333,0,4.665,0,6.999
	c-2.334,0-4.667,0-7,0.001c0,2.333,0,4.665,0,6.999c-2.334,0-4.667,0-7,0.001c0,1.999,0,4,0,5.999c0.43,2.236,4.928,0.406,7,1.001
	c0,2.333,0,4.665,0,6.999c-2.334,0-4.667,0-7.001,0c0.001,2.001,0.001,4,0.001,6c0.124,2.209,4.242,0.426,6,1
	c2.236-0.43,0.404-4.928,1-7c4.666,0,9.333,0,14,0c0,4.334,0,8.666,0,13c2.366,2.301,8.974,0.358,13,1
	c2.208-0.125,0.423-4.241,1-5.999c-0.432-2.237-4.928-0.405-7-1.001c0-6.666,0-13.334,0-19.999c-0.432-2.236-4.929-0.405-7-1.001
	c0-2.332,0-4.666,0-6.999c2.333-0.001,4.667,0,7-0.001c0-4.666,0-9.333,0-14c2.333,0.001,4.666,0,7,0c0,4.334,0,8.666,0,13
	c0.43,2.236,4.927,0.406,7,1.001c0-4.667,0-9.335,0-14.001c2.333,0.001,4.667,0,7,0c0,4.667,0,9.334,0,14
	c-2.334,0-4.667,0.001-7,0.001c0,1.999,0,3.999,0,5.999c0.429,2.236,4.928,0.406,7,1.001c0,2.333,0,4.666,0,7c2-0.001,4,0,6,0
	c2.235-0.431,0.404-4.929,1-7.001c2.333,0,4.666,0.001,7,0.001c0,4.333,0,8.666,0,13c0.43,2.235,4.928,0.405,7,0.999
	c0-11.666,0-23.333,0-34.999C142.334,42,144.667,42,147.002,42c0-2.334,0-4.666-0.001-7c-4.668,0-9.334,0-14,0.001
	c0-2.334,0-4.667,0-7.001c2.333,0,4.667,0.001,7,0.001c0-2.333,0-4.667,0-7.001c7,0.001,14,0.001,21,0c-1.328,5.994,1.005,8.328,7,7
	c-0.001,2.334,0,4.666,0,7c-2.334,0-4.668,0-7.001,0.001c0-2.334,0.001-4.667,0.001-7c-2.334,0-4.668,0-7,0c0,4.665,0,9.333,0,14
	c-2.335,0-4.669,0-6.999-0.001c-0.001,2.334-0.001,4.666-0.001,7c1.999,0.001,4,0,6,0.001c2.233-0.431,0.405-4.929,1-7
	c2.332-0.001,4.666-0.001,7-0.001c0,2.334-0.001,4.667-0.001,7.001c-2.334,0-4.668,0-6.999-0.001c0,2.334,0,4.667,0,7.001
	c2.001,0,4-0.001,6,0c2.233-0.431,0.405-4.929,0.999-7c5.995,1.327,8.326-1.006,7-7C170.333,42,172.667,42,175.001,42
	c0,2.334-0.001,4.667-0.001,7.001c-2.334,0-4.668,0-6.999-0.001c0.001,2.334-0.001,4.667-0.001,7.001c-5.993-1.329-8.326,1.005-7,7
	c-2.334,0-4.668,0-6.999-0.001c0,2.334,0.001,4.667,0.001,7.001c-2.335,0-4.67,0-7.001-0.001c0,2.335,0.001,4.666,0,7
	c-2.334,0-4.667,0-7,0c0,4.666,0,9.334,0,14c-2.334,0-4.667,0.001-7,0c0,2.001,0,4,0,6.001c0.125,2.208,4.243,0.424,6,0.999
	c2.234-0.432,0.404-4.928,1-7c2.333,0,4.666,0,7.001,0c-0.001,2.334-0.001,4.667-0.001,7c-2.334,0-4.668,0.001-7,0
	c0,2.334,0,4.668,0,7.002c4.666-0.001,9.333-0.001,14,0c0-6.668,0-13.336,0-20.001c-0.431-2.237-4.93-0.405-7-1.001
	c0-2.333,0.001-4.666,0-7c2.332,0,4.666,0,7,0c0.001-2.333,0-4.665,0.001-6.999C156.333,70,158.667,70,161.001,70
	c0-2.334-0.001-4.665-0.001-6.999C163.333,63,165.667,63,168.001,63c0-2.334,0.001-4.666-0.001-6.999c4.333,0,8.668-0.001,13,0
	c2.305-2.696,0.354-9.646,1.001-14.001c2.332,0,4.666,0,7,0c0.001-2,0.001-4,0.001-5.999c-0.432-2.237-4.93-0.405-7.001-1.001
	c0.001-2.334,0-4.666,0-7c4.333,0.001,8.665,0.001,13,0c2.233-0.43,0.405-4.928,1-6.999c2.332-0.001,4.666-0.001,7-0.001
	c0-4.334-0.001-8.666,0-13c-0.125-2.209-4.242-0.424-6.001-0.999c-2.236,0.431-0.404,4.927-0.999,6.999
	c-5.995-1.327-8.329,1.007-6.999,7.001c-2.334,0-4.668,0-7.001,0c0.001-2.335-0.001-4.667,0-7C184.334,14,186.668,14,189.002,14
	c0-2.334-0.002-4.666-0.001-6.999c2.331,0,4.665,0,7,0c0-2.334,0-4.667,0-7.001c6.999,0.001,14,0,20.999,0.001
	c0.002,2.333,0.001,4.665,0.001,6.999c-2.334,0-4.668,0-7.001,0.001c0.001,1.999,0.001,4,0.001,5.999
	c0.43,2.236,4.928,0.406,6.999,1.001c0.002,2.333,0.001,4.665,0.002,6.999c-4.334,0.001-8.669,0-13,0
	c-2.237,0.432-0.406,4.929-1.002,7.001c6.667,0,13.333-0.001,20.001-0.001c2.324-7.342,0.338-18.994,1-28c2.332,0,4.666,0,7,0
	c0,9.334,0,18.667,0,28.001c-2.334,0-4.668,0-7,0c0,1.999,0,3.999,0,5.999c0.43,2.236,4.928,0.406,7,1c0,4.666,0,9.334,0,14
	c-2.334,0-4.668,0-7,0.001c0-4.334,0-8.667,0-13.001c-0.432-2.236-4.93-0.405-6.999-1c0,7-0.001,14.001-0.001,21
	c-2.333,0-4.667,0-7,0c0-4.334,0-8.666,0-13c-0.124-2.209-4.242-0.424-5.999-1c-2.237,0.432-0.407,4.928-1.001,7
	c-2.334,0-4.668,0-7,0.001c0-2.334,0-4.667,0-7.001c-2.334,0-4.668,0-7,0c0.001,7.001,0.001,14,0.001,21
	c-4.336,0.001-8.668,0-13,0.001c-2.236,0.43-0.407,4.927-1,6.999c-4.335,0-8.669,0-13,0c-2.328,9.672-0.339,23.663-1.001,35.001
	c-2.335,0.001-4.667-0.001-7,0.001c0,1.999,0,3.999,0,5.999c0.43,2.235,4.927,0.404,7,1.001c-0.001,2.332-0.001,4.666-0.001,7
	c-2.334,0-4.668,0-6.999,0c0,4.332,0,8.664,0,13c0.43,2.234,4.928,0.402,7,0.998c0,2.334-0.001,4.667-0.001,7.001
	c-2.334,0-4.668,0-6.999-0.001c0,2.334,0,4.667,0,7.002c2,0,4.001-0.001,6.001-0.001c2.234-0.431,0.404-4.929,0.998-7
	c5.995,1.327,8.326-1.006,7-7c2.333-0.001,4.667-0.001,7.001-0.001c0.001-4.334,0.001-8.666,0-13
	c-0.125-2.209-4.241-0.425-5.999-0.999c-2.236,0.429-0.407,4.928-1.001,6.999c-2.334,0-4.668,0-7.001,0.001
	c0-2.334,0.001-4.667,0-6.999c2.334-0.001,4.667-0.002,7.001,0c0-4.668-0.001-9.334,0-14.001c2.333-0.001,4.667-0.001,7.001-0.001
	c-0.001,2.334-0.001,4.667-0.001,7.001c2-0.001,4,0,6.001-0.001c2.233-0.431,0.404-4.928,1-7c2.332,0.001,4.666,0.001,7,0.001
	c0,4.665-0.001,9.333,0,13.999c-2.334,0-4.668,0-7,0.001c-0.001,2.333-0.001,4.665-0.001,6.999c4.667,0.001,9.332,0.001,14,0
	c0,2.334,0,4.666,0,7c2.332,0.001,4.666,0.001,7,0.001c0,4.665-0.001,9.333-0.001,14.001c-2.334,0-4.666,0-6.999-0.001
	c0-2.334,0-4.667,0-7c-2.003,0-4,0-6-0.001c-2.236,0.43-0.407,4.929-1,7.001c-2.334,0.001-4.668,0-7,0c0.001,2.334,0,4.666,0,7
	c7,0,14,0.001,21,0.001c0,2.331,0,4.665,0,6.999c-9,0-17.999,0-26.999,0.001c-2.209,0.123-0.427,4.24-1.001,5.999
	c0.43,2.236,4.929,0.404,7.001,1.001c0,2.332,0,4.666,0,7c-4.335-0.002-8.669,0-13.001,0c-2.236,0.429-0.406,4.927-0.999,7
	c4.665-0.001,9.332,0,14,0c0,2.332-0.001,4.666-0.001,6.999c-4.668,0-9.333,0.001-14,0c0-2.334,0.001-4.667,0.001-6.999
	c-2.334,0-4.668,0-7.001-0.001c0.001,4.666,0.001,9.333,0,14c4.667-0.001,9.332,0,14,0c0,2.333,0.001,4.666,0.001,7
	c-4.668-0.001-9.335,0-14,0c0-2.335-0.001-4.667-0.001-7c-4.334,0-8.668-0.001-13.001,0.001c-2.235,0.428-0.405,4.926-0.999,6.998
	c-2.334,0.002-4.668,0.001-7,0.001c0-2.335,0-4.667,0-6.999c2.333-0.002,4.666-0.001,7-0.001c0-2.334,0-4.667,0-7
	c2.332,0,4.666,0,7,0c0-2.334,0-4.667,0-7.001c2.332,0.001,4.666,0.001,7,0.001c0-1.999,0.001-4.001,0.001-5.999
	c-0.125-2.21-4.243-0.426-6.001-1c-2.236,0.428-0.406,4.928-1,6.998c-5.994-1.327-8.328,1.007-7,7.001
	c-5.994-1.329-8.328,1.006-7,7.001c-2.334,0-4.667-0.001-7-0.002c0-2.333,0-4.666,0-7c2.333,0,4.666,0.001,7,0
	c0-2.333,0-4.666,0-6.998c5.995,1.326,8.327-1.008,7.002-7.002c2.33,0.002,4.664,0.002,6.998,0.002c0-2.334,0.001-4.668,0-7.002
	c5.995,1.329,8.326-1.006,7-7c2.332,0,4.666,0,6.999,0c0.001-2.333,0.002-4.666,0.001-7c5.995,1.329,8.326-1.004,7-7
	c2.332,0.002,4.666,0.001,7,0.001c0-2.334,0-4.667,0-7.001c2.333,0.001,4.667,0.001,6.999,0.001c0.002-2,0.002-4.001,0.001-6
	c-0.125-2.209-4.242-0.427-6-1.001c-2.235,0.431-0.407,4.929-1,7c-4.668,0.001-9.335,0.001-14,0c-0.001,4.667,0.001,9.335,0,14
	c-6.667,0.001-13.334,0.002-20,0.002c-2.236,0.43-0.406,4.928-0.998,6.998c-2.336,0-4.669,0.002-7.002,0c0-2.334,0-4.666,0-7
	c-4.667,0.002-9.334,0.001-14,0.002c0-2.334,0-4.667,0-7.001c6.666-0.001,13.334,0.001,20.001-0.001
	c2.207-0.123,0.423-4.242,1-5.999c-0.433-2.236-4.93-0.407-7.001-1.001c0-2.334,0-4.666,0-6.999
	c2.333-0.001,4.666-0.001,7.001-0.001c-0.001-2.333,0-4.666-0.001-7c-6.667,0-13.334,0.001-20,0c-2.209,0.124-0.426,4.243-1,6.002
	c0.43,2.234,4.928,0.402,7,0.998c0,2.334,0,4.666,0,7.001c-4.333,0-8.667,0.001-13,0c-2.236,0.429-0.406,4.928-1,7.001
	c-4.667,0-9.334-0.001-14,0c0-2.334,0-4.668,0-7.001c-4.667-0.001-9.334,0.001-14-0.001c0-2.334,0-4.666,0-7c2.333,0,4.666,0,7,0
	c0-2.334,0.001-4.666,0-7c2.333,0,4.666,0,7,0c0-1.999,0-3.998,0-5.998c-0.125-2.209-4.243-0.428-6-1.002
	c-2.236,0.43-0.406,4.928-1,7c-2.334,0-4.667,0-7,0c0-2.334,0.001-4.666,0-6.998c2.333-0.002,4.666-0.002,7-0.002
	c0-4.333,0-8.665,0-12.999c-0.125-2.21-4.242-0.427-6-1.001c-2.236,0.43-0.406,4.93-1,7.001c-2.334,0-4.667-0.001-7,0.001
	c0,4.664,0,9.332,0,13.998c-4.667,0.001-9.334,0-14,0c0-2.334,0-4.666,0-7c2.333,0,4.666,0.002,7,0.002c0-4.668,0-9.335,0-14
	c4.333-0.001,8.666,0,13,0c2.235-0.432,0.404-4.93,1-7.001c-4.667-0.001-9.333-0.001-14,0c0-2.334,0-4.668,0-7.001
	c-2.334,0-4.667,0-7,0c0,4.668,0,9.333,0,14.001c-2.334,0-4.667-0.001-7,0.001c0,9.332,0,18.664,0,27.998
	c-5.995-1.328-8.329,1.006-7.001,7.001c-2.334,0-4.667-0.001-7-0.001c0,2.333,0,4.667,0,7.001c-2.333,0-4.667-0.001-7,0.001
	c-0.863,5.193,0.107,8.559,6,7c2.235-0.432,0.404-4.93,1-7.001c2.333,0.001,4.667-0.001,7-0.001c0-2.334,0-4.666,0-6.999
	c4.667-0.001,9.333,0,14-0.001c0,2.334,0,4.666,0,7c-2.334,0-4.667,0.002-7,0.001c0,2.333,0,4.665,0,6.999c7,0.001,14,0,21,0.002
	c0,4.664,0,9.333,0,14c-5.994-1.33-8.328,1.004-7,7c-5.994-1.328-8.328,1.006-7,6.999c-5.994-1.327-8.328,1.007-7,7.001
	c-2.333-0.001-4.667-0.002-7,0c0-2.334,0-4.668,0-7c2.333-0.001,4.667,0,7,0c0-2.334,0-4.668,0-7c2.333,0,4.666,0,7,0
	c0-2.334,0-4.668,0-7c2.333,0,4.666-0.002,7-0.002c0-2.334,0-4.666,0-6.998C72.334,161,67.667,161,63.001,161
	c0,4.668,0,9.334,0.001,14.002c-5.995-1.328-8.329,1.006-7.001,7c-2.334,0-4.667-0.002-7,0c0,2.332,0,4.664,0,7
	c-2.334-0.002-4.667,0-7,0c0,2,0,3.999,0,5.998c0.43,2.236,4.928,0.405,7,1.002c0,2.332,0,4.664,0,6.998
	c-2.334,0.001-4.667,0.002-7,0.002c0,1.999,0,3.998,0.001,5.998c0.429,2.236,4.926,0.405,6.999,1.002c0,2.332,0,4.664,0,6.998
	c-2.334,0-4.667,0.002-7,0.002c0,1.999,0,3.998,0.001,5.998c0.123,2.209,4.241,0.426,5.999,1.001c2.235-0.431,0.404-4.929,1-7.001
	c4.333,0.002,8.666,0.002,13,0c2.208-0.125,0.424-4.24,1-5.999c-0.431-2.235-4.929-0.405-7-1.001c0-2.334,0-4.666,0-6.998
	c4.333-0.001,8.666-0.001,13,0c2.235-0.432,0.404-4.93,1-7.001c5.995,1.327,8.327-1.007,7-7c5.994,1.327,8.327-1.007,7-7
	c5.994,1.327,8.327-1.007,7-6.999c5.994,1.326,8.327-1.008,7-7c2.333,0,4.666-0.002,7-0.002c0,4.334,0,8.668,0,13
	c0.124,2.209,4.242,0.426,6,1.001c2.235-0.431,0.404-4.929,1-7.001c9,0.002,18,0.002,27,0c2.234-0.432,0.404-4.928,1-6.998
	c5.994,1.326,8.327-1.008,7.002-7.002c2.33,0.002,4.664,0.002,6.998,0.002c0,2.333,0,4.664,0,6.998c-2.334,0-4.668,0-7,0.002
	c0.001,2.332,0,4.665,0.002,6.998c-2.336,0.002-4.669,0.002-7.002,0c0,2.334,0,4.668,0,7.002c-5.994-1.329-8.328,1.005-7,6.998
	c-2.334,0.002-4.667,0.001-7,0.002c0-2.336,0-4.668,0-7c-4.334-0.001-8.667-0.002-13,0c-2.236,0.428-0.407,4.927-1,6.998
	c-2.334,0-4.667,0.002-7,0.002c-0.001,2.333,0,4.664,0,6.998c-2.334,0-4.667,0.002-7,0.001c0,2.333,0,4.667,0,7.001
	c4.666-0.001,9.333,0,14-0.002c0-4.666,0-9.333,0-14c2.333,0.001,4.666,0,7,0c0,2.334,0,4.666,0,7c2.333,0.001,4.666,0.002,7,0
	c0,2.334,0,4.666,0,7c2.333,0.001,4.666,0.002,7,0.002c0,4.664,0,9.332,0,14c-2.334,0-4.667-0.002-7-0.002c0-4.334,0-8.666,0-13
	c-2.367-2.299-8.976-0.357-13-1c-2.236,0.432-0.406,4.93-1,7.002c-2.334,0-4.667-0.002-7,0c0,2.332,0,4.664,0,6.998
	c4.667,0.002,9.333,0,14,0.002c-1.328,5.994,1.006,8.326,7,6.999c0,2.333,0,4.667,0,7.001c7-0.001,14-0.002,21,0
	c0.002,4.664,0,9.332,0,14c-2.334,0-4.668,0-7,0c0-2.334,0-4.668,0-7.001c-2,0-4-0.001-6-0.001c-2.236,0.432-0.406,4.93-1,7.002
	c-2.334,0-4.667,0-7,0c0-4.336,0-8.668,0-13c-0.432-2.237-4.929-0.408-7-1.001c0-2.334,0-4.667,0-6.999c-2.334,0-4.667,0-7-0.001
	c0,4.333,0,8.666,0,13c0.429,2.235,4.928,0.405,7,1.001c0,7,0,14,0,21c-2.334,0-4.667,0-7,0c0,2.332,0,4.666,0,7
	c-4.667,0-9.334-0.001-14,0c0-2.334,0-4.668,0-7c4.333,0,8.666,0,13,0c2.235-0.432,0.404-4.93,1-7c-4.333,0-8.667,0-13,0
	c-2.236,0.43-0.406,4.928-1,7c-2.334,0-4.667,0-7,0c0-2.334,0-4.668,0-7c2.333,0,4.666,0,7,0c0-7,0-14.001,0-21
	c2.333-0.002,4.666,0,7,0c0-2.002,0-4,0-6c-0.432-2.237-4.929-0.408-7-1.002c0-4.666,0-9.332,0-14c-4.667,0-9.333,0.002-14,0
	c0-2.334,0-4.666,0-6.998c-2,0-4-0.002-6-0.002c-2.236,0.432-0.406,4.928-1,7.002c-2.334,0-4.667,0-7-0.002c0,2,0,4.002,0,6.002
	c0.429,2.234,4.928,0.402,7,0.998c0,2.334,0,4.668,0,7.002c7-0.002,14,0,21-0.002c0,2.334,0,4.668,0,7.002
	c-4.334,0-8.667-0.002-13,0c-2.237,0.428-0.407,4.927-1,6.998c-2.334,0-4.667,0.002-7,0.001c0-2.334,0-4.667,0-7.001
	c-4.334,0.002-8.667,0.002-13,0c-2.236,0.432-0.407,4.93-1,7.001c-2.334,0-4.667,0-7,0.001c0-2.334,0-4.667,0-7.001
	c2.333,0.001,4.667-0.001,7-0.001c0-2.334,0-4.665,0-6.999c-4.334,0-8.667-0.001-13,0c-2.236,0.429-0.406,4.928-1,7.001
	c-4.667,0-9.333-0.001-14,0c0-2.334,0-4.668,0-7.001c-4.667-0.001-9.334,0.001-14,0c-0.001-2.333,0-4.667,0-6.999
	c2.333-0.002,4.666,0,7,0c0-4.335,0.001-8.668,0-13c-0.432-2.238-4.929-0.406-7-1c0,4.664,0,9.332,0,14c-2.334,0-4.667,0-7-0.002
	c0-2.334,0-4.666,0-6.998c-2.334,0-4.667,0-7-0.002c0,7.002,0,14,0,21.002c-2.334,0-4.667-0.001-7-0.002c0-14,0-28,0-41.999
	c4.333,0.001,8.666,0,13,0c2.235-0.432,0.404-4.929,1.001-7.001c2.332,0.002,4.665,0.001,6.999,0.001c0-2.334,0-4.667,0-7.001
	c2.333,0.002,4.666,0.002,7,0.002c0-2.334,0-4.668,0-7.002c2.333,0.002,4.666,0.002,7,0.002c0-2.334,0.001-4.668,0-7.002
	c-4.333,0-8.667,0.002-13,0c-2.236,0.432-0.405,4.928-1,7.002c-4.334,0-8.667-0.002-13,0c-2.208,0.123-0.426,4.242-0.999,5.998
	c0.429,2.236,4.926,0.404,6.999,1.002c0,2.332,0.001,4.664,0.001,6.998c-4.668,0.002-9.335,0.001-14.001,0.002
	c0-4.668,0-9.334,0.001-14.002c2.332,0,4.665,0.002,6.999,0.002c0-4.667,0.001-9.336,0-14c5.994,1.326,8.327-1.007,7-7
	c2.333-0.002,4.666,0,7,0c0-2.002,0.001-4.002,0-6c-0.125-2.209-4.242-0.427-6-1.001c-2.236,0.431-0.406,4.927-1,7.001
	c-5.994-1.33-8.328,1.005-7,7c-2.334,0-4.667-0.001-6.999-0.002c-0.001-6.998-0.001-14-0.001-20.998C2.334,133,4.667,133,7.001,133
	c0-1.999,0.001-4,0-5.998c-0.432-2.237-4.928-0.408-7-1.002c0-4.666,0-9.332,0-13.999c2.333-0.001,4.666,0.001,7,0.001
	c0,4.332,0,8.664,0,13c0.429,2.234,4.928,0.403,7,0.998c0.001-4.666,0-9.332,0-13.999c5.995,1.327,8.328-1.006,7-7
	C27.668,105,34.334,105,41.003,105c2.235-0.432,0.403-4.928,0.999-7c2.333,0,4.666,0,7,0c0,2.334,0,4.668,0,7
	c-2.334,0.002-4.667,0.001-6.999,0c-0.001,2.334-0.001,4.668-0.001,7c-2.334,0.002-4.667,0.001-6.999,0
	c-0.001,2.334-0.001,4.668-0.001,7c-4.334,0-8.667,0.002-13,0c-2.208,0.125-0.425,4.244-1,6.002c0.43,2.234,4.928,0.403,7,0.998
	c0,4.334,0,8.667,0,13c0.431,2.235,4.928,0.404,7,1.002c0-4.668,0-9.335,0.001-14.002c4.332,0,8.665,0,12.999,0
	c2.235-0.432,0.404-4.928,1-6.998c2.333,0,4.666-0.002,7-0.002c0-6.998,0-14,0-21c2.333,0,4.666,0.001,7,0c0-2.333,0.001-4.667,0-7
	c-6.667,0.001-13.334,0-20,0c-2.236,0.432-0.404,4.928-1,7c-6.667,0-13.334,0-19.999,0c-2.237,0.43-0.408,4.93-1.001,7.001
	c-6.999-0.001-14,0-21.001-0.001c0.001-2.332,0.001-4.666,0.001-6.999C2.334,98,4.668,98,7.001,98c0-1.999,0-4,0-5.999
	c-0.431-2.237-4.929-0.405-7-1.001c0-11.665,0-23.332,0-35c2.334,0,4.666,0,7,0c0,11.334,0,22.666,0,34
	c0.125,2.209,4.244,0.426,6.001,1c2.235-0.43,0.404-4.928,1-7c2.333,0,4.666,0,7,0c0-1.999,0-3.999,0-6c-0.433-2.236-4.93-0.404-7-1
	c0-2.334,0-4.666,0-6.999c2.333-0.001,4.666,0,7,0c0-2.001,0-4,0-6.001c-0.433-2.235-4.93-0.404-7-0.999c0-2.334,0-4.667,0-7.001
	c11.668,0,23.333,0,35,0.001c0,2.333,0,4.667,0,6.999c-4.333,0.001-8.667,0.001-12.999,0c-2.306,2.696-0.356,9.645-1,14
	c-2.334,0-4.668,0-7,0c0,4.666,0,9.334,0,14c4.333,0,8.666,0,13,0c2.235-0.43,0.404-4.928,1-7c2.333,0,4.665,0,6.999,0
	c0-1.999,0.001-4,0-6c-0.432-2.235-4.929-0.404-7-1c0.001-2.334,0-4.666,0-6.999c2.333,0,4.665,0,6.999,0c0,2.333,0,4.665,0,6.999
	c2,0,4,0,6,0c2.236-0.43,0.404-4.928,1-7c2.333,0.001,4.665,0,6.999,0c0.001-4.332,0.001-8.666,0-12.999
	c-0.431-2.236-4.928-0.405-7-1.001c0-14,0-27.999,0-42c2.333,0.001,4.667,0,7.001,0c0-4.666-0.001-9.334,0-14c2.333,0,4.666,0,7,0
	c0,2.334,0,4.666,0,7c2.333,0,4.666,0.001,7,0.001C77.001,11.666,77.001,16.334,77.001,21.001z M70.001,42c-2.334,0-4.667,0-7,0.001
	c0,2.333,0,4.665,0,6.999c2.333,0.001,4.666,0.001,7,0.001c0.594-2.073-1.236-6.569,1-7.001c2,0,4,0.001,6,0.001
	c0,2.333,0,4.665,0,6.999c2.333,0.001,4.666,0.001,7,0.001c0-4.667,0-9.335,0-14c-4.667,0-9.333-0.001-14,0
	C70.001,37.334,70.001,39.666,70.001,42z M126.001,84c0-2.334,0-4.666,0-7c-2.334,0-4.667,0-7,0c1.327,5.994-1.006,8.328-7,7
	c0,2.334,0,4.667,0,7.001c-2.334,0-4.667-0.001-7-0.001c0,2.333,0,4.667,0,7.001c4.667-0.001,9.333,0,14,0c0,2.333,0,4.665,0,6.999
	c-2.334,0-4.667,0-7,0.001c0,2.333,0,4.665,0,6.999c4.666,0,9.333,0,14,0.002c0,2.332,0,4.666,0,7c2.333-0.002,4.666,0,7,0
	c0-4.668,0-9.334,0-14.002c-2.334,0-4.667,0-7,0.001c0-2.334,0-4.667,0-7.001c-2.072-0.596-6.571,1.236-7-0.999
	c0-4.335,0-8.667,0-13C121.334,84,123.667,84,126.001,84z M126.001,91.001c2.333-0.001,4.666-0.001,7-0.001c0-2.334,0-4.666,0-6.999
	c-2.333-0.001-4.667,0-7-0.001C126.001,86.334,126.001,88.667,126.001,91.001z M49.001,133.001c-2.334,0-4.667-0.001-6.999-0.001
	c-0.001,2.333-0.001,4.667-0.001,7.001c-2.334,0-4.667-0.001-7,0.001c-0.596,2.07,1.235,6.567-1,6.999
	c-4.334-0.001-8.667,0.001-13.001,0.001c0,2.332,0,4.666,0,7c4.666-0.001,9.333-0.001,14,0c0-2.334,0-4.668,0-7.001
	c2.333,0.001,4.666,0.001,7,0.001c0-2.334,0-4.668,0-7.001c2.333-0.001,4.666-0.001,7-0.001c-1.329-5.993,1.005-8.327,7-7
	c0-2.334,0-4.666,0-7c-2.334,0-4.668,0-7,0C49.001,128.334,49.001,130.667,49.001,133.001z M112.001,133.001
	c2.333-0.001,4.666-0.001,7-0.001c0-4.666,0-9.334,0-13.998c-2.334-0.002-4.667,0-7-0.002
	C112.001,123.668,112.001,128.334,112.001,133.001z M14.001,98.001C16.335,98,18.669,98,21.002,98c0-2.334-0.001-4.666,0-7
	c-2.334,0-4.668,0-7,0C14.001,93.334,14.001,95.667,14.001,98.001z M56.001,161.002c-4.667,0-9.334-0.002-14,0
	c0,2.332,0,4.664,0,6.998c-2.334,0-4.666,0-7,0.002c0,2.332,0,4.664,0,6.998c2.333,0.002,4.666,0.002,7,0.002
	c0.594-2.074-1.237-6.57,1-7.002c1.758,0.574,5.875-1.207,6,1.002c0,2,0,3.999,0,5.998c-2.334,0-4.667,0-7,0.002
	c0,2.332,0,4.664,0,6.998c-2.334,0-4.667,0.002-7,0.002c1.327,5.994-1.006,8.326-7,6.999c0,2.333,0,4.665,0,6.999
	c2.333,0.001,4.666,0.001,7,0.001c0-2.334,0-4.667,0-7.001c2.333,0.001,4.666,0,7,0.002c-1.327-5.996,1.007-8.33,7-7
	c-1.329-5.994,1.006-8.329,7-7C56.001,170.334,56.001,165.666,56.001,161.002z M14.001,196.002c-2.334,0-4.667,0-7-0.001
	c0.001,2.333,0,4.667,0,7.001c4.666-0.002,9.333,0,14,0c0-4.668,0-9.335,0-14.002c-2.334,0-4.667,0.002-7,0.001
	C14.002,191.334,14.001,193.668,14.001,196.002z M91.001,189.001c-2.333,0-4.667-0.001-7,0.001c0,2.332,0,4.665,0,6.999
	c4.666,0.001,9.333,0,14,0c0-4.667,0-9.335,0-14c-2.334,0-4.667,0.001-7-0.001C91.001,184.334,91.001,186.667,91.001,189.001z"/>
<path fill-rule="evenodd" clip-rule="evenodd" fill="#010202" d="M63.001,238.001c2.333,0.001,4.667-0.001,7-0.001
	c0,2.334,0,4.668,0,7.002c-2.334,0-4.667,0-7,0c0,2,0,4,0,6c0.123,2.207,4.241,0.424,6,1c2.235-0.432,0.404-4.93,1-7
	c2.333,0,4.666,0,7,0c0,2.332,0,4.666,0,7c-2.334,0-4.667,0-7,0c0,4.666,0,9.332,0,14c-5.994-1.328-8.328,1.005-7,7
	c-2.334,0-4.667-0.001-7,0c0-9.334,0-18.668,0.001-28c2.333,0,4.666,0,7,0C63.001,242.668,63.001,240.334,63.001,238.001z"/>
<path fill-rule="evenodd" clip-rule="evenodd" fill="#010202" d="M84.001,238c2.333,0.001,4.666,0.002,7,0.002c0,4.666,0,9.332,0,14
	c-2.334,0-4.667,0-7,0c0,7,0,14,0,20.999c-2.334,0-4.667,0.001-7,0.001c0,2.332,0,4.666,0,6.999c2,0.001,4,0.001,6,0.001
	c2.235-0.432,0.404-4.93,1-7.001c7,0.001,14,0,21,0.001c0,2.332,0,4.666,0,7c7,0,14,0,21,0c0,2.332,0,4.666,0,7
	c-23.334,0-46.667,0-70,0c0-2.334,0-4.668,0-7c2.333,0,4.665,0,7,0c0-2.334,0-4.668,0-7c4.333,0,8.666,0,13,0
	c2.319-5.015,0.344-14.324,1-21c2.333,0,4.666,0,7,0C84.001,247.334,84.001,242.668,84.001,238z"/>
<path fill-rule="evenodd" clip-rule="evenodd" fill="#010202" d="M161.001,259.002c4.667,0,9.332,0,14,0
	c0.001,4.666,0.001,9.332,0,13.999c-2.333,0.001-4.667,0.001-7,0.001c0-2.334,0-4.668,0-7.001c-2.334,0-4.668,0-7,0.001
	C161.001,263.668,161.001,261.334,161.001,259.002c-1.999,0-3.999,0-6,0c-2.3,2.365-0.359,8.974-1,13
	c0.43,2.236,4.929,0.404,7,0.999c0,2.333,0,4.667,0,7.001c4.666-0.001,9.332,0.001,14,0c0.001,2.332,0.001,4.666,0.001,7
	c-7.001,0-14.002,0-21.001,0c0-2.334,0-4.668,0-7c-1.999,0-3.999,0-6,0c-2.236,0.43-0.406,4.928-0.999,7c-4.668,0-9.335,0-14.001,0
	c0-4.668,0-9.334,0-14c4.333,0,8.667,0,13.001,0c2.234-0.433,0.404-4.93,0.999-7c-4.334,0-8.668,0-13,0c-2.236,0.43-0.406,4.928-1,7
	c-2.334,0-4.667,0-7,0c0-2.334,0-4.668,0-7c2.333-0.001,4.666,0,7,0c0-2.334,0-4.668,0-7c4.333,0,8.667,0,13.001,0
	c2.233-0.432,0.403-4.93,0.999-7c4.332,0,8.666,0,13,0c2.234-0.433,0.405-4.93,1-7c5.994,1.326,8.326-1.006,7.001-7.001
	c2.331,0,4.665,0,6.999,0c0,4.667,0.001,9.333,0.001,14.001c-4.335,0-8.669,0-13,0C159.765,252.432,161.595,256.93,161.001,259.002z
	"/>
<path fill-rule="evenodd" clip-rule="evenodd" fill="#010202" d="M210,189.001c4.667-0.001,9.333,0.001,14.001-0.001
	c0,2.334,0,4.667,0,7.001c4.666,0.001,9.332,0,14,0c0-4.667,0-9.333,0-13.999c-4.667-0.002-9.334,0-14-0.001
	c0-2.334,0-4.667,0-6.999c13.666-0.001,27.332,0,41-0.002c2.234-0.432,0.405-4.928,1-6.999c5.992,1.327,8.326-1.005,7-7.001
	c2.332,0.001,4.666,0.001,7,0.001c0,2.333,0,4.667,0,7.001c2.332-0.001,4.666-0.001,7-0.001c-0.002,4.667,0,9.333,0,14.001
	c-2.334,0-4.668,0-7-0.001c0-2.333,0-4.667,0-6.999c-4.669,0-9.334,0-14-0.001c0,7,0,14.001,0,21c-2.334,0-4.668,0-7-0.001
	c0-2.334,0-4.665,0-6.999c-4.334,0-8.668,0-13.001,0.001c-2.235,0.428-0.405,4.927-0.999,7c-2.334-0.002-4.668-0.002-7-0.001
	c0,2.333,0,4.667,0,7.001c-4.334-0.002-8.668-0.002-13,0c-2.236,0.429-0.406,4.927-1,6.999c-5.994-1.328-8.327,1.007-6.999,7.001
	c-2.334,0-4.668,0-7.001,0c0-2.334,0.001-4.668,0-7.002c2.333,0.002,4.667,0.002,7.001,0.001c0-2.333-0.001-4.666-0.001-7
	c-6.668-0.001-13.334,0.001-20,0.001c-2.209,0.124-0.426,4.242-1,5.998c0.43,2.236,4.928,0.405,7,1.002
	c-0.001,2.332,0,4.664,0,6.998c-2.334,0-4.668,0-7,0.002c0,4.664,0,9.332,0,13.999c7.001-0.001,14,0,21.001-0.001
	c-0.001-4.665-0.001-9.332,0-13.998c5.993,1.327,8.325-1.007,6.999-7.001c2.332,0.001,4.666,0.001,7,0.001c0,2.331,0,4.665,0,6.999
	c-2.334,0-4.668,0-7,0.001c0,2.332,0,4.666,0,7c2,0,4,0,5.999,0c2.235-0.434,0.405-4.93,1.001-7.001
	c2.332,0.001,4.666,0.001,7,0.001c0.001,2.331,0.001,4.665,0,6.999c4.332,0.001,8.666,0.001,13,0.001c2.207-0.125,0.424-4.244,1-6
	c-0.432-2.237-4.93-0.407-7.001-1c0.001-2.334,0.001-4.668,0.001-7c5.992,1.326,8.326-1.008,7-7c2.332-0.002,4.666-0.002,6.999,0
	c0.001,2.332,0.001,4.666,0.001,7c4.332-0.002,8.666,0,13,0c2.234-0.433,0.404-4.929,1-7.001c2.332-0.001,4.666-0.001,7-0.001
	c0-1.998,0-3.999,0-6c-0.432-2.235-4.929-0.405-7-1c0-2.334,0-4.666-0.001-6.998c4.667-0.002,9.333,0,14-0.001
	C287.001,196,287.001,203,287.001,210c-4.334,0-8.668,0.002-13,0c-2.236,0.43-0.406,4.93-1,7c-4.334,0.002-8.668,0.002-13,0
	c-2.236,0.43-0.405,4.929-1,7.002c7-0.001,14,0,21,0c0.001,2.332,0,4.665,0,7c-2.334-0.002-4.668-0.002-7-0.001c0,2,0,3.999,0,6.001
	c0.124,2.207,4.24,0.424,6,0.999c2.234-0.431,0.404-4.929,1-6.999c2.331,0,4.665,0,6.999,0c-0.001,2.332,0.001,4.666,0.001,6.998
	c-2.334,0-4.668,0-7,0.001c0,4.333,0,8.667,0,13.001c0.43,2.234,4.928,0.404,7,1c-0.002,2.332,0,4.666,0,7c-2.334,0-4.668,0-7,0
	c0-2.334,0-4.668,0-7c-2.335,0-4.669,0-7,0c0,4.665,0,9.331,0,13.999c-2.334,0-4.668,0-7,0.001c0,4.332,0,8.666,0,13
	c0.123,2.209,4.24,0.424,6,0.999c2.234-0.431,0.404-4.929,1-6.999c2.332,0,4.666,0,7,0c0,2.332,0,4.666,0,7
	c-5.994-1.328-8.328,1.006-7,7c-2.334,0-4.668,0-7,0c0-2.334,0-4.668,0-7c-2,0-4.002,0-6,0c-2.236,0.43-0.407,4.928-1,7
	c-2.334,0-4.668,0-7-0.001c0-2.334,0-4.668,0-6.999c2.332-0.001,4.666-0.001,7-0.001c0-2.334,0-4.668,0-6.999
	c-2.002-0.001-4,0-6-0.001c-2.236,0.431-0.406,4.929-1,7.001c-2.334,0-4.668,0-7-0.001c0,2.333,0,4.667,0,7.001
	c-4.668,0-9.335,0-14,0c0-2.334,0-4.668,0-7c4.332,0,8.666,0,13,0c2.207-0.125,0.424-4.242,1-6c-0.432-2.236-4.93-0.406-7-1.001
	c0-2.334,0-4.668,0-6.999c4.332-0.001,8.666,0,13,0c2.234-0.432,0.404-4.93,1-7c-4.334,0-8.668,0-13,0c-2.236,0.43-0.406,4.928-1,7
	c-2.334,0-4.668,0-7-0.001c0,4.667,0,9.333,0,14.001c-6.668,0-13.334-0.001-20,0c-2.235,0.43-0.406,4.928-0.999,7
	c-4.668,0-9.335,0-14,0c0-2.334,0-4.668-0.001-7c-2.001,0-3.999,0-5.999,0c-2.237,0.43-0.407,4.928-1,7c-2.334,0-4.668,0-7.001,0
	c0-2.334,0-4.668,0.001-7c2.332,0,4.666,0,7,0c0-4.334,0-8.668,0-13c-0.433-2.236-4.931-0.406-7.001-1.001
	c0-2.334,0.001-4.667,0.001-6.999c2.332,0,4.665,0,6.999,0c0.001,2.332,0.001,4.666,0.001,7c4.665,0,9.332,0,14,0
	c-0.001,2.332-0.001,4.666-0.001,7c-2.334,0-4.668,0-6.999,0c-0.001,2.332-0.001,4.666-0.001,7c4.333,0,8.667,0,13,0
	c2.235-0.432,0.404-4.93,1.001-7c2.331,0,4.665,0,6.999,0c0-2,0.001-4,0.001-6c-0.433-2.236-4.931-0.406-7.001-1
	c0-2.334,0-4.668,0.001-7c4.332,0,8.665,0,12.999,0c2.299-2.367,0.357-8.977,1-13c-0.432-2.236-4.93-0.406-7-1
	c0-2.334,0-4.668,0-7.001c-1.999,0.001-4-0.001-5.999-0.001c-2.209,0.125-0.426,4.244-1.001,6.001c0.43,2.235,4.928,0.405,7,1.001
	c0.001,2.332,0.001,4.666,0.001,7c-4.334,0-8.668,0-13,0c-2.237,0.43-0.406,4.928-1.001,7c-2.334,0-4.668,0-7,0
	c0.001-2.334,0.001-4.668,0-7c2.333,0,4.665,0,6.999,0c0-2.334,0.002-4.668,0.001-7c-2,0-3.999,0-6.001,0
	c-2.235,0.43-0.404,4.928-0.999,7c-4.668,0-9.333,0-14,0c0-2.334,0-4.668,0.001-7c2.331,0,4.665,0,6.999,0c0-2,0.001-4,0.001-6
	c-0.432-2.237-4.93-0.407-7-1.001c0-2.334,0-4.667-0.001-7c-4.334,0.001-8.667,0.001-13-0.001c-2.235,0.431-0.406,4.928-0.999,7.001
	c-5.995-1.329-8.329,1.005-7.001,7.001c-2.334,0-4.668,0-6.999,0c0-2.334-0.001-4.667-0.001-7c2.332-0.002,4.666-0.002,7-0.002
	c-0.001-1.998,0-3.999,0-5.998c-0.432-2.236-4.93-0.406-7-1c0-2.336,0-4.668,0.001-7.001c2.331,0.001,4.665,0.001,6.999,0.001
	c0-4.668,0.001-9.335-0.001-14c4.668-0.001,9.333,0,14.001,0c0.001,2.332,0.001,4.665,0.001,6.999c-2.334,0-4.668,0-7.001,0.001
	c0.001,2.332,0.001,4.665,0.001,6.999c6.665,0,13.331,0.001,19.999,0.001c2.208-0.126,0.425-4.243,1.001-6.001
	c-0.433-2.236-4.931-0.405-7.001-0.999c0-2.334,0.001-4.668,0.001-7.002c2.331,0.002,4.665,0.002,6.999,0.002
	c0-2.001,0.001-4.001,0.001-6.001c-0.433-2.235-4.931-0.405-7.001-0.999c0-2.334,0.001-4.668,0.001-7.002
	c9,0.001,17.999,0.002,26.999,0c2.206-0.124,0.424-4.241,0.999-5.999c-0.432-2.235-4.929-0.405-6.998-1
	c-0.001-2.335-0.002-4.666-0.001-6.999c2.332,0,4.666,0,7,0c0-2.334,0.001-4.667,0-7c2.332,0,4.666,0,7,0c0.001,2.332,0,4.666,0,7
	c-2.334,0-4.668,0-7,0C210.002,184.334,210,186.667,210,189.001z M266.001,246.002c0,2,0,3.999,0,5.999c-2.334,0-4.668,0-7,0.001
	c0,4.666,0,9.332,0,13.999c2.332,0.001,4.666,0.001,7,0.001c0-4.668,0-9.334,0-14.001c2.332,0.001,4.666,0.001,7,0.001
	c0-2.334,0-4.668,0-7c-5.994,1.326-8.328-1.006-7-7.001c-2.334,0-4.668,0-7.001,0c0.001,2.332,0.001,4.666,0.001,7
	C261.072,245.596,265.57,243.766,266.001,246.002z M231.001,252.002c7,0,14,0,21,0c0-7,0-14.002-0.001-21.001
	c-6.998,0-14,0-20.999,0.001C231.001,238.002,231.001,245.002,231.001,252.002z"/>
<path fill-rule="evenodd" clip-rule="evenodd" fill="#010202" d="M126.001,14.001c0-4.667,0-9.335,0-14
	c7-0.001,14-0.001,21.001-0.001c0,2.334-0.001,4.666-0.001,7c-4.334,0.001-8.668,0-13,0c-2.208,0.125-0.426,4.242-1,6
	c0.43,2.236,4.928,0.406,7,1.001c0,2.333,0,4.666,0,6.999c-2.334,0-4.667,0-7,0.001c0,2.333,0,4.667,0,6.999
	c-2.333,0.001-4.667,0-7,0.001c0-2.333,0-4.667,0-7.001c2.333,0.001,4.666,0.001,7,0.001c0-2.001,0-4.001,0-6.001
	C132.57,12.764,128.073,14.596,126.001,14.001z"/>
<path fill-rule="evenodd" clip-rule="evenodd" fill="#010202" d="M161.001,7c0-2.334,0-4.666,0-6.999c2.332,0,4.666,0,7,0
	c-0.001,2.333,0,4.666,0,7c-5.994-1.328-8.328,1.005-7,7c-2.334,0-4.668,0-7-0.001c0-2.334,0-4.666,0-7
	C156.333,7,158.667,7,161.001,7z"/>
<path fill-rule="evenodd" clip-rule="evenodd" fill="#010202" d="M217.001,56c4.666,0,9.332,0.001,14,0.001c0,2.333,0,4.665,0,6.999
	c-2.334,0-4.668,0-7,0c0,2.334,0,4.666,0,7c-4.335,0.001-8.667,0.001-13,0c-2.236,0.432-0.406,4.928-1,7c-4.333,0-8.668,0-13,0
	c-2.236,0.432-0.406,4.929-1,7c-2.334,0-4.668,0-6.999,0c-0.001,2,0,4,0,6c2.364,2.301,8.974,0.357,13,1
	c2.233-0.43,0.404-4.928,0.999-7c2.331,0.001,4.665,0.001,6.999,0.001c0-2.334,0.001-4.667,0.001-7.001c14,0,28,0,41.999,0
	c0.001,4.666,0,9.334,0.002,14c-5.995-1.328-8.329,1.006-7.001,7.001c-2.334,0-4.668,0-7-0.001c0,2.334,0,4.667,0,7.001
	c6.666-0.001,13.332,0,20-0.001c2.234-0.432,0.404-4.928,1-7c5.993,1.328,8.326-1.005,7-6.999c5.992,1.327,8.326-1.007,7-7.001
	c5.992,1.327,8.326-1.005,7-6.999c2.332-0.001,4.666-0.001,7-0.001C287,79.334,287,81.667,287,84.001c-2.334,0-4.668,0-6.999-0.001
	c0,2,0,4,0,6c0.43,2.236,4.928,0.406,7,1c-0.002,2.333,0,4.666,0,7c-2.334,0-4.668,0-7,0c0-2.334,0-4.666,0-7c-2.334,0-4.668,0-7,0
	c0,4.667,0,9.334,0,14c-4.334,0-8.668,0-13,0c-2.236,0.431-0.406,4.93-1,7.001c4.666-0.001,9.332-0.001,14-0.001
	c0,2.334,0,4.666,0,7c-4.334,0.002-8.668,0.001-13,0c-2.236,0.43-0.406,4.928-1,7c4.332,0,8.666,0,13,0c2.234-0.43,0.404-4.927,1-7
	c2.332,0,4.666,0,7,0c0-2,0-4,0-6c-0.432-2.235-4.931-0.405-7-1c0-2.334,0-4.666,0-7c4.666,0.001,9.332,0,14,0
	c-0.001,7.001,0,14,0.001,21c-2.334,0-4.668,0-7.001,0c0,2.001,0,4.001,0,6c0.43,2.236,4.928,0.406,7,1c-0.002,4.666,0,9.334,0,14
	c-5.996-1.328-8.329,1.008-7,7.001c-5.994-1.328-8.328,1.006-7,6.999c-5.994-1.326-8.328,1.008-7,7.001
	c-2.334,0-4.668,0.001-7,0.001c0-2.334,0-4.667,0-7.001c2.332,0.001,4.666-0.001,7-0.001c0-2.332,0-4.666,0-7
	c-9.334,0.001-18.669,0.001-28,0c0-2.334,0-4.666,0-6.998c9-0.001,17.999,0,27-0.001c2.234-0.431,0.404-4.93,0.999-7
	c2.333,0,4.667,0,7.001,0c0-2.001,0-4.001,0-6.001c-2.367-2.301-8.977-0.358-13-1c-2.236,0.431-0.407,4.929-1,7
	c-2.334,0-4.668,0-7,0c0-2.334,0-4.666,0-7c-2.334,0-4.668,0-7,0c0-7,0-13.998-0.001-20.998c-4.668,0-9.333,0-13.999-0.001
	c0-2.334,0-4.668,0-7c-2.334,0-4.668,0-7,0c0,4.665,0,9.333,0,13.999c-2.334,0-4.668,0-7,0.001c0,4.665-0.001,9.333,0.001,13.999
	c-2.334,0-4.668,0-7.001,0c0-4.666,0.001-9.334,0-14c2.332,0.001,4.666,0.001,7,0.001c0-4.667,0-9.334,0-14.001
	c5.994,1.328,8.325-1.005,6.999-6.999c2.333,0,4.667,0,7.001-0.001c0-2.333,0-4.666,0-7c4.332,0.001,8.665,0.001,13,0
	c2.234-0.43,0.404-4.928,1.001-7c-6.669,0-13.335,0.001-20.001,0c-2.236,0.432-0.406,4.928-1,7c-4.334,0-8.667,0-13,0
	c-2.236,0.432-0.406,4.928-1,7c-9.334,0-18.669,0.001-27.999,0c-0.001-9.333,0-18.666,0-27.999c4.331,0,8.664,0,13-0.001
	c2.233-0.43,0.403-4.928,0.999-6.999c2.332-0.001,4.666-0.001,7-0.001c-0.001,2.334-0.001,4.668,0,7.001c2-0.001,4.001,0,6-0.001
	c2.234-0.431,0.404-4.928,1-6.999c2.332-0.001,4.666-0.001,7-0.001C217.002,60.666,217.001,58.334,217.001,56z"/>
<path fill-rule="evenodd" clip-rule="evenodd" fill="#010202" d="M217.002,133c2.331,0,4.665,0,6.999,0c0-4.666,0-9.333,0-14
	c4.666,0.002,9.332,0.001,14,0.001c0,2.333,0,4.665,0,6.999c-2.334,0-4.668,0-7,0c0,2.334,0,4.667,0,7.001c-2.334,0-4.668,0-7-0.001
	c0,2,0,4,0,6c0.123,2.209,4.24,0.424,6,1c2.234-0.432,0.404-4.929,1-6.999c2.332-0.001,4.666-0.001,7-0.001
	c0,4.667,0,9.334,0,14.002c-4.334-0.002-8.668,0-13-0.002c-2.209,0.125-0.426,4.244-1,6.001c0.43,2.235,4.928,0.405,7,0.999
	c0,2.334,0,4.666,0,7c6.998,0,14,0,21,0c0,2.334,0.001,4.666,0.001,7c-9.335,0-18.67,0-28.001,0.002c-0.001-4.334,0-8.668,0-13
	c-0.125-2.209-4.242-0.428-6-1.002c-2.235,0.432-0.406,4.93-1,7.002c-2.333-0.002-4.667-0.002-7,0c0-2.334,0-4.668-0.001-7
	c2.333-0.001,4.667-0.001,7.001-0.001c0-2.001,0-4,0.001-6.001c-0.433-2.236-4.93-0.404-7.001-0.999
	c0.001-2.334,0-4.667,0.001-7.001c2.332,0,4.666,0,7,0C217.002,137.666,217.001,135.334,217.002,133z"/>
<path fill-rule="evenodd" clip-rule="evenodd" fill="#010202" d="M210.001,175.002c-5.994-1.328-8.328,1.006-7,7
	c-2.334,0-4.668,0-6.999-0.001c-0.001,2.333-0.001,4.665-0.001,7.001c-2.334-0.002-4.668-0.002-6.999,0c0-2.335-0.001-4.668,0-7.001
	c2.332,0,4.666,0,7,0c-0.001-2-0.001-4.001-0.001-5.999c-0.432-2.236-4.931-0.406-6.999-1c0-2.334,0-4.668,0-7
	c2.33,0,4.664,0,6.999,0c0,2.332,0,4.666,0,7c2,0,4-0.002,6.001,0c2.234-0.434,0.404-4.929,0.999-7c2.332,0,4.666,0,7,0
	C210.001,170.334,210.001,172.668,210.001,175.002z"/>
<path fill-rule="evenodd" clip-rule="evenodd" fill="#010202" d="M84.001,168.002c2.333,0,4.666-0.002,7-0.002
	c0,2.334,0,4.668,0,7.002c-2.334,0-4.667-0.002-7-0.002c0,2.334,0,4.667,0,7.001c-2.334,0-4.667-0.001-7,0.001c0-2.334,0-4.668,0-7
	c2.333,0,4.666-0.002,7-0.002C84.001,172.666,84.001,170.334,84.001,168.002z"/>
<path fill-rule="evenodd" clip-rule="evenodd" fill="#010202" d="M133.001,259.002c-5.994-1.328-8.328,1.006-7,7
	c-2.334,0-4.667,0-7,0c0-2.334,0-4.668,0-7c5.994,1.326,8.327-1.006,7-7c2.333,0,4.666,0,7,0
	C133.001,254.334,133.001,256.668,133.001,259.002z"/>
<path fill-rule="evenodd" clip-rule="evenodd" fill="#010202" d="M245.001,196.002c2.332-0.002,4.666-0.002,7-0.001
	c0,2.333,0,4.667,0,7.001c-2.334,0-4.668-0.002-7-0.001c0,2.333,0,4.667,0,7.001c-2.334,0-4.668,0-7,0c0-2.334,0-4.668,0-7
	c2.332-0.001,4.666-0.001,7-0.001C245.001,200.667,245.001,198.333,245.001,196.002z"/>
</svg>
